<?xml version="1.0" encoding="UTF-8"?>
<svg width="210mm" height="200mm" version="1.1" viewBox="0 0 210 200" xmlns="http://www.w3.org/2000/svg" xmlns:cc="http://creativecommons.org/ns#" xmlns:dc="http://purl.org/dc/elements/1.1/" xmlns:osb="http://www.openswatchbook.org/uri/2009/osb" xmlns:rdf="http://www.w3.org/1999/02/22-rdf-syntax-ns#">
 <metadata>
  <rdf:RDF>
   <cc:Work rdf:about="">
    <dc:format>image/svg+xml</dc:format>
    <dc:type rdf:resource="http://purl.org/dc/dcmitype/StillImage"/>
    <dc:title/>
   </cc:Work>
  </rdf:RDF>
 </metadata>
 <g stroke-width=".26458">
  <path d="m19.655-20.738h36.286v107.35h-36.286v-107.35z" opacity="0"/>
  <path d="m67.63 20.603h27.491v78.759h-27.491v-78.759z" opacity="0"/>
  <path d="m67.63 20.603h43.095v52.754h-43.095v-52.754z" opacity="0"/>
  <path d="m69.116 28.404h18.204v40.866h-18.204v-40.866z" opacity="0"/>
 </g>
 <g fill="#fff" stroke="#d3d3d3">
  <path d="m70.388 20.865h23.033v71.329h-23.033v-71.329z"/>
  <path d="m93.483 37.429h23.033v71.329h-23.033v-71.329z"/>
  <path d="m116.51 54.492h23.033v71.329h-23.033v-71.329z"/>
 </g>
 <path transform="scale(.26458)" d="m401.04 549.44c-8.1718 0-15.134 0.68342-20.889 2.0508-5.7548 1.3674-10.473 3.5894-14.156 6.666-3.6831 3.0766-6.3888 7.0423-8.1152 11.896-1.6113 4.7858-2.416 10.597-2.416 17.434 0 6.7685 0.80468 12.544 2.416 17.33 1.7264 4.7858 4.4322 8.7515 8.1152 11.896 3.6831 3.0766 8.3427 5.3338 13.982 6.7695 5.6397 1.3674 12.375 2.0508 20.201 2.0508 6.3303 0 11.912-0.3085 16.746-0.92383 4.9491-0.54692 9.1487-1.2304 12.602-2.0508v-5.2305c0-1.7092-1.4958-2.5625-4.4883-2.5625-1.9566 0-4.7759 0.20503-8.459 0.61523-3.6831 0.34185-8.0568 0.51172-13.121 0.51172-4.9491 0-9.2074-0.3749-12.775-1.127-3.568-0.82044-6.5615-2.2576-8.9785-4.3086-2.3019-2.1194-4.0268-5.0581-5.1777-8.8184-1.151-3.8286-1.7266-8.718-1.7266-14.666 0-5.4011 0.46009-9.8784 1.3809-13.434 0.92076-3.6236 2.532-6.4958 4.834-8.6152 2.3019-2.1878 5.2935-3.7264 8.9766-4.6152 3.6831-0.88877 8.2292-1.332 13.639-1.332 4.4887 0 8.8626 0.13669 13.121 0.41015 4.2586 0.27346 8.1155 0.54683 11.568 0.82031v-5.0254c0-0.88879-0.28779-1.6073-0.86328-2.1543-0.46037-0.61533-1.3825-1.0937-2.7637-1.4356-2.5321-0.68367-6.0425-1.1953-10.531-1.5371-4.4888-0.4102-8.8626-0.61523-13.121-0.61523zm-127.62 1.0254v71.479c0 1.6408 1.439 2.4609 4.3164 2.4609h63.014v-6.9727c0-1.6408-1.437-2.4609-4.3144-2.4609h-44.197v-62.045c0-0.75206-0.40332-1.3339-1.209-1.7442-0.80567-0.47858-1.8414-0.71679-3.1074-0.71679h-14.502zm175 0v71.479c0 1.6408 1.439 2.4609 4.3164 2.4609h68.021v-6.7676c0-0.75205-0.40329-1.3339-1.209-1.7441-0.80567-0.41023-1.8414-0.61523-3.1074-0.61523h-49.203v-23.588h46.613v-6.8711c0-1.6408-1.3803-2.4609-4.1426-2.4609h-42.471v-22.664h51.275v-6.7676c0-1.6409-1.3235-2.4609-3.9707-2.4609h-66.123z" style="font-feature-settings:normal;font-variant-caps:normal;font-variant-ligatures:normal;font-variant-numeric:normal"/>
 <path d="m16.768 181.4h176.46" fill="none" stroke="#d3d3d3" stroke-width="1.5"/>
</svg>
